<mxfile host="Electron" modified="2022-06-16T05:43:52.295Z" agent="5.0 (X11; Linux x86_64) AppleWebKit/537.36 (KHTML, like Gecko) draw.io/18.0.1 Chrome/100.0.4896.143 Electron/18.2.0 Safari/537.36" etag="rPF1IFL5n_jk08Nh2SLA" compressed="false" version="18.0.1" type="device">
  <diagram id="Ntim4DHOhxzQbpDa0oqD" name="Page-1">
    <mxGraphModel dx="4070" dy="2608" grid="1" gridSize="10" guides="1" tooltips="1" connect="1" arrows="1" fold="1" page="1" pageScale="1" pageWidth="850" pageHeight="1100" math="0" shadow="0">
      <root>
        <mxCell id="0" />
        <mxCell id="1" parent="0" />
        <mxCell id="a94rsnF3gP8LBblvFeuN-60" value="&lt;font size=&quot;1&quot; style=&quot;&quot;&gt;&lt;b style=&quot;font-size: 32px;&quot;&gt;El blog de &lt;font color=&quot;#ff8000&quot;&gt;nou&lt;/font&gt;man/ty&lt;/b&gt;&lt;/font&gt;" style="text;html=1;strokeColor=none;fillColor=none;align=center;verticalAlign=middle;whiteSpace=wrap;rounded=0;dashed=1;fontSize=20;" vertex="1" parent="1">
          <mxGeometry x="1620" y="-510" width="500" height="30" as="geometry" />
        </mxCell>
        <mxCell id="a94rsnF3gP8LBblvFeuN-62" value="&lt;span style=&quot;font-size: 32px;&quot;&gt;&lt;b&gt;Nous framework por un sitio web&lt;/b&gt;&lt;/span&gt;" style="text;html=1;strokeColor=none;fillColor=none;align=center;verticalAlign=middle;whiteSpace=wrap;rounded=0;dashed=1;fontSize=20;" vertex="1" parent="1">
          <mxGeometry x="-20" y="-510" width="600" height="30" as="geometry" />
        </mxCell>
        <mxCell id="a94rsnF3gP8LBblvFeuN-63" value="" style="group" vertex="1" connectable="0" parent="1">
          <mxGeometry x="-170" y="440" width="579" height="230" as="geometry" />
        </mxCell>
        <mxCell id="a94rsnF3gP8LBblvFeuN-37" value="" style="group" vertex="1" connectable="0" parent="a94rsnF3gP8LBblvFeuN-63">
          <mxGeometry x="219" width="160" height="230" as="geometry" />
        </mxCell>
        <mxCell id="a94rsnF3gP8LBblvFeuN-38" value="" style="rounded=0;whiteSpace=wrap;html=1;strokeWidth=3;" vertex="1" parent="a94rsnF3gP8LBblvFeuN-37">
          <mxGeometry width="160" height="230" as="geometry" />
        </mxCell>
        <mxCell id="a94rsnF3gP8LBblvFeuN-39" value="&lt;b&gt;Intención&lt;br&gt;&lt;/b&gt;" style="text;html=1;strokeColor=none;fillColor=none;align=center;verticalAlign=middle;whiteSpace=wrap;rounded=0;" vertex="1" parent="a94rsnF3gP8LBblvFeuN-37">
          <mxGeometry x="15" y="10" width="130" height="30" as="geometry" />
        </mxCell>
        <mxCell id="a94rsnF3gP8LBblvFeuN-40" value="- Objectivo&lt;br&gt;- Emoción" style="text;html=1;strokeColor=none;fillColor=none;align=left;verticalAlign=middle;whiteSpace=wrap;rounded=0;" vertex="1" parent="a94rsnF3gP8LBblvFeuN-37">
          <mxGeometry x="15" y="50" width="130" height="120" as="geometry" />
        </mxCell>
        <mxCell id="a94rsnF3gP8LBblvFeuN-41" value="&lt;b&gt;&lt;font style=&quot;font-size: 20px;&quot;&gt;&lt;strike&gt;Espiritu&lt;/strike&gt;&lt;/font&gt;&lt;/b&gt;" style="text;html=1;strokeColor=none;fillColor=none;align=center;verticalAlign=middle;whiteSpace=wrap;rounded=0;dashed=1;" vertex="1" parent="a94rsnF3gP8LBblvFeuN-63">
          <mxGeometry y="10" width="270" height="30" as="geometry" />
        </mxCell>
        <mxCell id="a94rsnF3gP8LBblvFeuN-42" value="" style="rounded=0;whiteSpace=wrap;html=1;strokeWidth=3;" vertex="1" parent="a94rsnF3gP8LBblvFeuN-63">
          <mxGeometry x="409" width="160" height="230" as="geometry" />
        </mxCell>
        <mxCell id="a94rsnF3gP8LBblvFeuN-43" value="&lt;b&gt;Ontologia&lt;br&gt;&lt;/b&gt;" style="text;html=1;strokeColor=none;fillColor=none;align=center;verticalAlign=middle;whiteSpace=wrap;rounded=0;" vertex="1" parent="a94rsnF3gP8LBblvFeuN-63">
          <mxGeometry x="429" y="10" width="130" height="30" as="geometry" />
        </mxCell>
        <mxCell id="a94rsnF3gP8LBblvFeuN-47" value="- Conceptos&lt;br&gt;- Semantica&lt;br&gt;- lexicon" style="text;html=1;strokeColor=none;fillColor=none;align=left;verticalAlign=middle;whiteSpace=wrap;rounded=0;" vertex="1" parent="a94rsnF3gP8LBblvFeuN-63">
          <mxGeometry x="449" y="50" width="130" height="120" as="geometry" />
        </mxCell>
        <mxCell id="a94rsnF3gP8LBblvFeuN-64" value="" style="group" vertex="1" connectable="0" parent="1">
          <mxGeometry x="-140" y="-450" width="540" height="230" as="geometry" />
        </mxCell>
        <mxCell id="a94rsnF3gP8LBblvFeuN-23" value="&lt;b&gt;&lt;font style=&quot;font-size: 20px;&quot;&gt;Datos&lt;/font&gt;&lt;/b&gt;" style="text;html=1;strokeColor=none;fillColor=none;align=center;verticalAlign=middle;whiteSpace=wrap;rounded=0;dashed=1;" vertex="1" parent="a94rsnF3gP8LBblvFeuN-64">
          <mxGeometry width="270" height="30" as="geometry" />
        </mxCell>
        <mxCell id="a94rsnF3gP8LBblvFeuN-25" value="" style="group" vertex="1" connectable="0" parent="a94rsnF3gP8LBblvFeuN-64">
          <mxGeometry x="190" width="160" height="230" as="geometry" />
        </mxCell>
        <mxCell id="a94rsnF3gP8LBblvFeuN-4" value="" style="rounded=0;whiteSpace=wrap;html=1;strokeWidth=3;" vertex="1" parent="a94rsnF3gP8LBblvFeuN-25">
          <mxGeometry width="160" height="230" as="geometry" />
        </mxCell>
        <mxCell id="a94rsnF3gP8LBblvFeuN-2" value="&lt;b&gt;Repositorio de&lt;br&gt;contenido multimedia&lt;br&gt;&lt;/b&gt;" style="text;html=1;strokeColor=none;fillColor=none;align=center;verticalAlign=middle;whiteSpace=wrap;rounded=0;" vertex="1" parent="a94rsnF3gP8LBblvFeuN-25">
          <mxGeometry x="15" y="10" width="130" height="30" as="geometry" />
        </mxCell>
        <mxCell id="a94rsnF3gP8LBblvFeuN-5" value="- indice.yml&lt;br&gt;&lt;div style=&quot;&quot;&gt;&lt;span style=&quot;background-color: initial;&quot;&gt;- metadatos.yml&lt;/span&gt;&lt;/div&gt;&lt;div style=&quot;&quot;&gt;&lt;span style=&quot;background-color: initial;&quot;&gt;- imágenes&lt;br&gt;&amp;nbsp; &amp;nbsp;(svg, png, jpg, ...)&lt;/span&gt;&lt;/div&gt;&lt;div style=&quot;&quot;&gt;&lt;span style=&quot;background-color: initial;&quot;&gt;- videos&lt;/span&gt;&lt;/div&gt;&lt;div style=&quot;&quot;&gt;&lt;span style=&quot;background-color: initial;&quot;&gt;- ...&lt;/span&gt;&lt;/div&gt;&lt;div style=&quot;&quot;&gt;&lt;span style=&quot;background-color: initial;&quot;&gt;&lt;br&gt;&lt;/span&gt;&lt;/div&gt;" style="text;html=1;strokeColor=none;fillColor=none;align=left;verticalAlign=middle;whiteSpace=wrap;rounded=0;" vertex="1" parent="a94rsnF3gP8LBblvFeuN-25">
          <mxGeometry x="15" y="50" width="130" height="120" as="geometry" />
        </mxCell>
        <mxCell id="a94rsnF3gP8LBblvFeuN-48" value="" style="rounded=0;whiteSpace=wrap;html=1;strokeWidth=3;" vertex="1" parent="a94rsnF3gP8LBblvFeuN-64">
          <mxGeometry x="380" width="160" height="230" as="geometry" />
        </mxCell>
        <mxCell id="a94rsnF3gP8LBblvFeuN-49" value="&lt;b&gt;Repositorio de&lt;br&gt;información&lt;br&gt;&lt;/b&gt;" style="text;html=1;strokeColor=none;fillColor=none;align=center;verticalAlign=middle;whiteSpace=wrap;rounded=0;" vertex="1" parent="a94rsnF3gP8LBblvFeuN-64">
          <mxGeometry x="395" y="10" width="130" height="30" as="geometry" />
        </mxCell>
        <mxCell id="a94rsnF3gP8LBblvFeuN-50" value="- &lt;span style=&quot;background-color: initial;&quot;&gt;contenido textual&lt;br&gt;&lt;/span&gt;" style="text;html=1;strokeColor=none;fillColor=none;align=left;verticalAlign=middle;whiteSpace=wrap;rounded=0;" vertex="1" parent="a94rsnF3gP8LBblvFeuN-64">
          <mxGeometry x="400" y="55" width="130" height="120" as="geometry" />
        </mxCell>
        <mxCell id="a94rsnF3gP8LBblvFeuN-65" value="" style="group" vertex="1" connectable="0" parent="1">
          <mxGeometry x="-160" y="-190" width="610" height="300" as="geometry" />
        </mxCell>
        <mxCell id="a94rsnF3gP8LBblvFeuN-11" value="" style="rounded=0;whiteSpace=wrap;html=1;strokeWidth=3;" vertex="1" parent="a94rsnF3gP8LBblvFeuN-65">
          <mxGeometry x="210" width="400" height="300" as="geometry" />
        </mxCell>
        <mxCell id="a94rsnF3gP8LBblvFeuN-7" value="" style="rounded=0;whiteSpace=wrap;html=1;strokeWidth=3;dashed=1;" vertex="1" parent="a94rsnF3gP8LBblvFeuN-65">
          <mxGeometry x="230" y="40" width="160" height="230" as="geometry" />
        </mxCell>
        <mxCell id="a94rsnF3gP8LBblvFeuN-8" value="&lt;b&gt;Diseño estructural&lt;br&gt;&lt;/b&gt;" style="text;html=1;strokeColor=none;fillColor=none;align=center;verticalAlign=middle;whiteSpace=wrap;rounded=0;" vertex="1" parent="a94rsnF3gP8LBblvFeuN-65">
          <mxGeometry x="245" y="50" width="130" height="30" as="geometry" />
        </mxCell>
        <mxCell id="a94rsnF3gP8LBblvFeuN-9" value="- estructura.yml&lt;br&gt;- plantillas.html&lt;br&gt;- components&lt;br&gt;- schemas" style="text;html=1;strokeColor=none;fillColor=none;align=left;verticalAlign=middle;whiteSpace=wrap;rounded=0;" vertex="1" parent="a94rsnF3gP8LBblvFeuN-65">
          <mxGeometry x="245" y="90" width="125" height="30" as="geometry" />
        </mxCell>
        <mxCell id="a94rsnF3gP8LBblvFeuN-10" value="" style="rounded=0;whiteSpace=wrap;html=1;strokeWidth=3;dashed=1;" vertex="1" parent="a94rsnF3gP8LBblvFeuN-65">
          <mxGeometry x="420" y="40" width="160" height="230" as="geometry" />
        </mxCell>
        <mxCell id="a94rsnF3gP8LBblvFeuN-12" value="&lt;b&gt;Diseño visual&lt;br&gt;&lt;/b&gt;" style="text;html=1;strokeColor=none;fillColor=none;align=center;verticalAlign=middle;whiteSpace=wrap;rounded=0;" vertex="1" parent="a94rsnF3gP8LBblvFeuN-65">
          <mxGeometry x="425" y="50" width="130" height="30" as="geometry" />
        </mxCell>
        <mxCell id="a94rsnF3gP8LBblvFeuN-13" value="&lt;b&gt;Diseño de pantilla&lt;br&gt;&lt;/b&gt;" style="text;html=1;strokeColor=none;fillColor=none;align=center;verticalAlign=middle;whiteSpace=wrap;rounded=0;" vertex="1" parent="a94rsnF3gP8LBblvFeuN-65">
          <mxGeometry x="225" y="10" width="130" height="30" as="geometry" />
        </mxCell>
        <mxCell id="a94rsnF3gP8LBblvFeuN-14" value="- color_scheme.yml&lt;br&gt;- fonts_scheme.yml&lt;br&gt;- plantillas.css&lt;br&gt;- schemas" style="text;html=1;strokeColor=none;fillColor=none;align=left;verticalAlign=middle;whiteSpace=wrap;rounded=0;" vertex="1" parent="a94rsnF3gP8LBblvFeuN-65">
          <mxGeometry x="430" y="90" width="125" height="30" as="geometry" />
        </mxCell>
        <mxCell id="a94rsnF3gP8LBblvFeuN-26" value="&lt;b&gt;&lt;font style=&quot;font-size: 20px;&quot;&gt;Cáscara&lt;/font&gt;&lt;/b&gt;" style="text;html=1;strokeColor=none;fillColor=none;align=center;verticalAlign=middle;whiteSpace=wrap;rounded=0;dashed=1;" vertex="1" parent="a94rsnF3gP8LBblvFeuN-65">
          <mxGeometry y="10" width="270" height="30" as="geometry" />
        </mxCell>
        <mxCell id="a94rsnF3gP8LBblvFeuN-66" value="" style="group" vertex="1" connectable="0" parent="1">
          <mxGeometry x="-170" y="130" width="379" height="230" as="geometry" />
        </mxCell>
        <mxCell id="a94rsnF3gP8LBblvFeuN-19" value="" style="rounded=0;whiteSpace=wrap;html=1;strokeWidth=3;" vertex="1" parent="a94rsnF3gP8LBblvFeuN-66">
          <mxGeometry x="219" width="160" height="230" as="geometry" />
        </mxCell>
        <mxCell id="a94rsnF3gP8LBblvFeuN-21" value="&lt;b&gt;Cursor por los datos&amp;nbsp;&lt;br&gt;&lt;/b&gt;" style="text;html=1;strokeColor=none;fillColor=none;align=center;verticalAlign=middle;whiteSpace=wrap;rounded=0;" vertex="1" parent="a94rsnF3gP8LBblvFeuN-66">
          <mxGeometry x="234" y="10" width="130" height="30" as="geometry" />
        </mxCell>
        <mxCell id="a94rsnF3gP8LBblvFeuN-22" value="- sources&lt;br&gt;- indices.yml&lt;br&gt;- adaptor.mustache" style="text;html=1;strokeColor=none;fillColor=none;align=left;verticalAlign=middle;whiteSpace=wrap;rounded=0;" vertex="1" parent="a94rsnF3gP8LBblvFeuN-66">
          <mxGeometry x="234" y="80" width="130" height="120" as="geometry" />
        </mxCell>
        <mxCell id="a94rsnF3gP8LBblvFeuN-27" value="&lt;span style=&quot;font-size: 20px;&quot;&gt;&lt;b&gt;Cursor&lt;/b&gt;&lt;/span&gt;" style="text;html=1;strokeColor=none;fillColor=none;align=center;verticalAlign=middle;whiteSpace=wrap;rounded=0;dashed=1;" vertex="1" parent="a94rsnF3gP8LBblvFeuN-66">
          <mxGeometry y="5" width="270" height="30" as="geometry" />
        </mxCell>
        <mxCell id="a94rsnF3gP8LBblvFeuN-67" value="" style="group" vertex="1" connectable="0" parent="1">
          <mxGeometry x="-180" y="700" width="770" height="233" as="geometry" />
        </mxCell>
        <mxCell id="a94rsnF3gP8LBblvFeuN-17" value="" style="rounded=0;whiteSpace=wrap;html=1;strokeWidth=3;" vertex="1" parent="a94rsnF3gP8LBblvFeuN-67">
          <mxGeometry x="420" y="3" width="160" height="230" as="geometry" />
        </mxCell>
        <mxCell id="a94rsnF3gP8LBblvFeuN-28" value="" style="rounded=0;whiteSpace=wrap;html=1;strokeWidth=3;" vertex="1" parent="a94rsnF3gP8LBblvFeuN-67">
          <mxGeometry x="230" y="3" width="160" height="230" as="geometry" />
        </mxCell>
        <mxCell id="a94rsnF3gP8LBblvFeuN-29" value="Datos + Cursor" style="text;html=1;strokeColor=none;fillColor=none;align=center;verticalAlign=middle;whiteSpace=wrap;rounded=0;" vertex="1" parent="a94rsnF3gP8LBblvFeuN-67">
          <mxGeometry x="245" y="53" width="130" height="30" as="geometry" />
        </mxCell>
        <mxCell id="a94rsnF3gP8LBblvFeuN-30" value="&lt;b&gt;Imagen de marca&lt;br&gt;&lt;/b&gt;" style="text;html=1;strokeColor=none;fillColor=none;align=center;verticalAlign=middle;whiteSpace=wrap;rounded=0;" vertex="1" parent="a94rsnF3gP8LBblvFeuN-67">
          <mxGeometry x="245" y="13" width="130" height="30" as="geometry" />
        </mxCell>
        <mxCell id="a94rsnF3gP8LBblvFeuN-31" value="- marca.yml (cursor)&lt;br&gt;&lt;div style=&quot;&quot;&gt;&lt;span style=&quot;background-color: initial;&quot;&gt;-&amp;nbsp;&lt;br&gt;&lt;/span&gt;&lt;/div&gt;&lt;div style=&quot;&quot;&gt;&lt;span style=&quot;background-color: initial;&quot;&gt;&lt;br&gt;&lt;/span&gt;&lt;/div&gt;" style="text;html=1;strokeColor=none;fillColor=none;align=left;verticalAlign=middle;whiteSpace=wrap;rounded=0;" vertex="1" parent="a94rsnF3gP8LBblvFeuN-67">
          <mxGeometry x="244" y="83" width="130" height="120" as="geometry" />
        </mxCell>
        <mxCell id="a94rsnF3gP8LBblvFeuN-33" value="&lt;span style=&quot;font-size: 20px;&quot;&gt;&lt;b&gt;Proyecto&lt;/b&gt;&lt;/span&gt;&lt;span style=&quot;color: rgba(0, 0, 0, 0); font-family: monospace; font-size: 0px; text-align: start;&quot;&gt;%3CmxGraphModel%3E%3Croot%3E%3CmxCell%20id%3D%220%22%2F%3E%3CmxCell%20id%3D%221%22%20parent%3D%220%22%2F%3E%3CmxCell%20id%3D%222%22%20value%3D%22%26lt%3Bspan%20style%3D%26quot%3Bfont-size%3A%2020px%3B%26quot%3B%26gt%3B%26lt%3Bb%26gt%3BCursor%26lt%3B%2Fb%26gt%3B%26lt%3B%2Fspan%26gt%3B%22%20style%3D%22text%3Bhtml%3D1%3BstrokeColor%3Dnone%3BfillColor%3Dnone%3Balign%3Dcenter%3BverticalAlign%3Dmiddle%3BwhiteSpace%3Dwrap%3Brounded%3D0%3Bdashed%3D1%3B%22%20vertex%3D%221%22%20parent%3D%221%22%3E%3CmxGeometry%20x%3D%22-139%22%20y%3D%22548%22%20width%3D%22270%22%20height%3D%2230%22%20as%3D%22geometry%22%2F%3E%3C%2FmxCell%3E%3C%2Froot%3E%3C%2FmxGraphModel%3E&lt;/span&gt;" style="text;html=1;strokeColor=none;fillColor=none;align=center;verticalAlign=middle;whiteSpace=wrap;rounded=0;dashed=1;" vertex="1" parent="a94rsnF3gP8LBblvFeuN-67">
          <mxGeometry y="36" width="270" height="30" as="geometry" />
        </mxCell>
        <mxCell id="a94rsnF3gP8LBblvFeuN-35" value="&lt;b&gt;Diseño de pagina&lt;br&gt;&lt;/b&gt;" style="text;html=1;strokeColor=none;fillColor=none;align=center;verticalAlign=middle;whiteSpace=wrap;rounded=0;" vertex="1" parent="a94rsnF3gP8LBblvFeuN-67">
          <mxGeometry x="420" y="13" width="130" height="30" as="geometry" />
        </mxCell>
        <mxCell id="a94rsnF3gP8LBblvFeuN-36" value="Cáscara + espiritu&amp;nbsp;" style="text;html=1;strokeColor=none;fillColor=none;align=center;verticalAlign=middle;whiteSpace=wrap;rounded=0;" vertex="1" parent="a94rsnF3gP8LBblvFeuN-67">
          <mxGeometry x="435" y="53" width="130" height="30" as="geometry" />
        </mxCell>
        <mxCell id="a94rsnF3gP8LBblvFeuN-51" value="" style="rounded=0;whiteSpace=wrap;html=1;strokeWidth=3;" vertex="1" parent="a94rsnF3gP8LBblvFeuN-67">
          <mxGeometry x="610" width="160" height="230" as="geometry" />
        </mxCell>
        <mxCell id="a94rsnF3gP8LBblvFeuN-52" value="&lt;b&gt;Contenido&lt;br&gt;&lt;/b&gt;" style="text;html=1;strokeColor=none;fillColor=none;align=center;verticalAlign=middle;whiteSpace=wrap;rounded=0;" vertex="1" parent="a94rsnF3gP8LBblvFeuN-67">
          <mxGeometry x="610" y="10" width="130" height="30" as="geometry" />
        </mxCell>
        <mxCell id="a94rsnF3gP8LBblvFeuN-53" value="- Datos + Cursor" style="text;html=1;strokeColor=none;fillColor=none;align=center;verticalAlign=middle;whiteSpace=wrap;rounded=0;" vertex="1" parent="a94rsnF3gP8LBblvFeuN-67">
          <mxGeometry x="625" y="50" width="130" height="30" as="geometry" />
        </mxCell>
        <mxCell id="a94rsnF3gP8LBblvFeuN-54" value="- marca.yml (cursor)&lt;br&gt;&lt;div style=&quot;&quot;&gt;&lt;span style=&quot;background-color: initial;&quot;&gt;- Diseño de pantilla&lt;br&gt;&lt;/span&gt;&lt;/div&gt;&lt;div style=&quot;&quot;&gt;&lt;span style=&quot;background-color: initial;&quot;&gt;- Repositorio de multimedia&lt;/span&gt;&lt;/div&gt;&lt;div style=&quot;&quot;&gt;&lt;span style=&quot;background-color: initial;&quot;&gt;&lt;br&gt;&lt;/span&gt;&lt;/div&gt;" style="text;html=1;strokeColor=none;fillColor=none;align=left;verticalAlign=middle;whiteSpace=wrap;rounded=0;" vertex="1" parent="a94rsnF3gP8LBblvFeuN-67">
          <mxGeometry x="434" y="83" width="130" height="120" as="geometry" />
        </mxCell>
        <mxCell id="a94rsnF3gP8LBblvFeuN-58" value="- repositorio de information" style="text;html=1;strokeColor=none;fillColor=none;align=left;verticalAlign=middle;whiteSpace=wrap;rounded=0;" vertex="1" parent="a94rsnF3gP8LBblvFeuN-67">
          <mxGeometry x="630" y="80" width="130" height="120" as="geometry" />
        </mxCell>
        <mxCell id="a94rsnF3gP8LBblvFeuN-68" value="" style="group" vertex="1" connectable="0" parent="1">
          <mxGeometry x="-181" y="960" width="390" height="230" as="geometry" />
        </mxCell>
        <mxCell id="a94rsnF3gP8LBblvFeuN-15" value="" style="rounded=0;whiteSpace=wrap;html=1;strokeWidth=3;" vertex="1" parent="a94rsnF3gP8LBblvFeuN-68">
          <mxGeometry x="230" width="160" height="230" as="geometry" />
        </mxCell>
        <mxCell id="a94rsnF3gP8LBblvFeuN-16" value="&lt;b&gt;Pagina web&lt;br&gt;&lt;/b&gt;" style="text;html=1;strokeColor=none;fillColor=none;align=center;verticalAlign=middle;whiteSpace=wrap;rounded=0;" vertex="1" parent="a94rsnF3gP8LBblvFeuN-68">
          <mxGeometry x="244" y="10" width="130" height="30" as="geometry" />
        </mxCell>
        <mxCell id="a94rsnF3gP8LBblvFeuN-32" value="&lt;span style=&quot;font-size: 20px;&quot;&gt;&lt;b&gt;Realisación&lt;/b&gt;&lt;/span&gt;" style="text;html=1;strokeColor=none;fillColor=none;align=center;verticalAlign=middle;whiteSpace=wrap;rounded=0;dashed=1;" vertex="1" parent="a94rsnF3gP8LBblvFeuN-68">
          <mxGeometry y="10" width="270" height="30" as="geometry" />
        </mxCell>
        <mxCell id="a94rsnF3gP8LBblvFeuN-70" value="" style="shape=curlyBracket;whiteSpace=wrap;html=1;rounded=1;flipH=1;fontSize=32;fontColor=#FF8000;strokeWidth=3;" vertex="1" parent="1">
          <mxGeometry x="540" y="-460" width="20" height="590" as="geometry" />
        </mxCell>
        <mxCell id="a94rsnF3gP8LBblvFeuN-71" value="&lt;font color=&quot;#000000&quot;&gt;&lt;b&gt;collections&lt;/b&gt;&lt;/font&gt;" style="text;html=1;strokeColor=none;fillColor=none;align=center;verticalAlign=middle;whiteSpace=wrap;rounded=0;fontSize=32;fontColor=#FF8000;" vertex="1" parent="1">
          <mxGeometry x="570" y="-180" width="340" height="30" as="geometry" />
        </mxCell>
        <mxCell id="a94rsnF3gP8LBblvFeuN-74" value="" style="shape=curlyBracket;whiteSpace=wrap;html=1;rounded=1;flipH=1;fontSize=32;fontColor=#FF8000;strokeWidth=3;" vertex="1" parent="1">
          <mxGeometry x="660" y="420" width="20" height="540" as="geometry" />
        </mxCell>
        <mxCell id="a94rsnF3gP8LBblvFeuN-75" value="&lt;font color=&quot;#000000&quot;&gt;&lt;b&gt;especifico&lt;/b&gt;&lt;/font&gt;" style="text;html=1;strokeColor=none;fillColor=none;align=center;verticalAlign=middle;whiteSpace=wrap;rounded=0;fontSize=32;fontColor=#FF8000;" vertex="1" parent="1">
          <mxGeometry x="750" y="675" width="60" height="30" as="geometry" />
        </mxCell>
        <mxCell id="a94rsnF3gP8LBblvFeuN-76" value="" style="shape=curlyBracket;whiteSpace=wrap;html=1;rounded=1;flipH=1;fontSize=32;fontColor=#FF8000;strokeWidth=3;" vertex="1" parent="1">
          <mxGeometry x="240" y="120" width="20" height="270" as="geometry" />
        </mxCell>
        <mxCell id="a94rsnF3gP8LBblvFeuN-77" value="&lt;font color=&quot;#000000&quot;&gt;&lt;b&gt;selection&lt;/b&gt;&lt;/font&gt;" style="text;html=1;strokeColor=none;fillColor=none;align=center;verticalAlign=middle;whiteSpace=wrap;rounded=0;fontSize=32;fontColor=#FF8000;" vertex="1" parent="1">
          <mxGeometry x="220" y="240" width="430" height="30" as="geometry" />
        </mxCell>
        <mxCell id="a94rsnF3gP8LBblvFeuN-79" value="" style="shape=curlyBracket;whiteSpace=wrap;html=1;rounded=1;flipH=1;fontSize=32;fontColor=#FF8000;strokeWidth=3;" vertex="1" parent="1">
          <mxGeometry x="240" y="950" width="20" height="270" as="geometry" />
        </mxCell>
        <mxCell id="a94rsnF3gP8LBblvFeuN-80" value="&lt;font color=&quot;#000000&quot;&gt;&lt;b&gt;&quot;material&quot;&lt;/b&gt;&lt;/font&gt;" style="text;html=1;strokeColor=none;fillColor=none;align=center;verticalAlign=middle;whiteSpace=wrap;rounded=0;fontSize=32;fontColor=#FF8000;" vertex="1" parent="1">
          <mxGeometry x="140" y="1070" width="430" height="30" as="geometry" />
        </mxCell>
        <mxCell id="a94rsnF3gP8LBblvFeuN-83" value="" style="group" vertex="1" connectable="0" parent="1">
          <mxGeometry x="-1230" y="-460" width="579" height="230" as="geometry" />
        </mxCell>
        <mxCell id="a94rsnF3gP8LBblvFeuN-84" value="" style="group" vertex="1" connectable="0" parent="a94rsnF3gP8LBblvFeuN-83">
          <mxGeometry x="219" width="160" height="230" as="geometry" />
        </mxCell>
        <mxCell id="a94rsnF3gP8LBblvFeuN-85" value="" style="rounded=0;whiteSpace=wrap;html=1;strokeWidth=3;" vertex="1" parent="a94rsnF3gP8LBblvFeuN-84">
          <mxGeometry width="160" height="230" as="geometry" />
        </mxCell>
        <mxCell id="a94rsnF3gP8LBblvFeuN-86" value="&lt;b&gt;Intención&lt;br&gt;&lt;/b&gt;" style="text;html=1;strokeColor=none;fillColor=none;align=center;verticalAlign=middle;whiteSpace=wrap;rounded=0;" vertex="1" parent="a94rsnF3gP8LBblvFeuN-84">
          <mxGeometry x="15" y="10" width="130" height="30" as="geometry" />
        </mxCell>
        <mxCell id="a94rsnF3gP8LBblvFeuN-87" value="- Objectivo&lt;br&gt;- Emoción" style="text;html=1;strokeColor=none;fillColor=none;align=left;verticalAlign=middle;whiteSpace=wrap;rounded=0;" vertex="1" parent="a94rsnF3gP8LBblvFeuN-84">
          <mxGeometry x="15" y="50" width="130" height="120" as="geometry" />
        </mxCell>
        <mxCell id="a94rsnF3gP8LBblvFeuN-88" value="&lt;b&gt;&lt;font style=&quot;font-size: 20px;&quot;&gt;Espiritu&lt;/font&gt;&lt;/b&gt;" style="text;html=1;strokeColor=none;fillColor=none;align=center;verticalAlign=middle;whiteSpace=wrap;rounded=0;dashed=1;" vertex="1" parent="a94rsnF3gP8LBblvFeuN-83">
          <mxGeometry y="10" width="270" height="30" as="geometry" />
        </mxCell>
        <mxCell id="a94rsnF3gP8LBblvFeuN-89" value="" style="rounded=0;whiteSpace=wrap;html=1;strokeWidth=3;" vertex="1" parent="a94rsnF3gP8LBblvFeuN-83">
          <mxGeometry x="409" width="160" height="230" as="geometry" />
        </mxCell>
        <mxCell id="a94rsnF3gP8LBblvFeuN-90" value="&lt;b&gt;Ontologia&lt;br&gt;&lt;/b&gt;" style="text;html=1;strokeColor=none;fillColor=none;align=center;verticalAlign=middle;whiteSpace=wrap;rounded=0;" vertex="1" parent="a94rsnF3gP8LBblvFeuN-83">
          <mxGeometry x="429" y="10" width="130" height="30" as="geometry" />
        </mxCell>
        <mxCell id="a94rsnF3gP8LBblvFeuN-91" value="- Conceptos&lt;br&gt;- Semantica&lt;br&gt;- lexicon" style="text;html=1;strokeColor=none;fillColor=none;align=left;verticalAlign=middle;whiteSpace=wrap;rounded=0;" vertex="1" parent="a94rsnF3gP8LBblvFeuN-83">
          <mxGeometry x="449" y="50" width="130" height="120" as="geometry" />
        </mxCell>
        <mxCell id="a94rsnF3gP8LBblvFeuN-167" value="" style="endArrow=classic;html=1;rounded=0;fontSize=32;fontColor=#000000;strokeWidth=5;" edge="1" parent="a94rsnF3gP8LBblvFeuN-83">
          <mxGeometry width="50" height="50" relative="1" as="geometry">
            <mxPoint x="134.17000000000007" y="53" as="sourcePoint" />
            <mxPoint x="134" y="253" as="targetPoint" />
          </mxGeometry>
        </mxCell>
        <mxCell id="a94rsnF3gP8LBblvFeuN-170" value="&lt;font size=&quot;1&quot; color=&quot;#000000&quot;&gt;&lt;b style=&quot;font-size: 20px;&quot;&gt;Desiñar&lt;/b&gt;&lt;/font&gt;" style="text;html=1;strokeColor=none;fillColor=none;align=center;verticalAlign=middle;whiteSpace=wrap;rounded=0;fontSize=32;fontColor=#FF8000;" vertex="1" parent="a94rsnF3gP8LBblvFeuN-83">
          <mxGeometry x="-160" y="130" width="430" height="30" as="geometry" />
        </mxCell>
        <mxCell id="a94rsnF3gP8LBblvFeuN-92" value="" style="group" vertex="1" connectable="0" parent="1">
          <mxGeometry x="-1230" y="-210" width="579" height="230" as="geometry" />
        </mxCell>
        <mxCell id="a94rsnF3gP8LBblvFeuN-93" value="" style="group" vertex="1" connectable="0" parent="a94rsnF3gP8LBblvFeuN-92">
          <mxGeometry x="219" width="160" height="230" as="geometry" />
        </mxCell>
        <mxCell id="a94rsnF3gP8LBblvFeuN-94" value="" style="rounded=0;whiteSpace=wrap;html=1;strokeWidth=3;" vertex="1" parent="a94rsnF3gP8LBblvFeuN-93">
          <mxGeometry width="160" height="230" as="geometry" />
        </mxCell>
        <mxCell id="a94rsnF3gP8LBblvFeuN-95" value="&lt;b&gt;Idea&lt;br&gt;&lt;/b&gt;" style="text;html=1;strokeColor=none;fillColor=none;align=center;verticalAlign=middle;whiteSpace=wrap;rounded=0;" vertex="1" parent="a94rsnF3gP8LBblvFeuN-93">
          <mxGeometry x="15" y="10" width="130" height="30" as="geometry" />
        </mxCell>
        <mxCell id="a94rsnF3gP8LBblvFeuN-103" value="" style="group" vertex="1" connectable="0" parent="a94rsnF3gP8LBblvFeuN-92">
          <mxGeometry width="570" height="230" as="geometry" />
        </mxCell>
        <mxCell id="a94rsnF3gP8LBblvFeuN-97" value="&lt;b&gt;&lt;font style=&quot;font-size: 20px;&quot;&gt;Información&lt;/font&gt;&lt;/b&gt;" style="text;html=1;strokeColor=none;fillColor=none;align=center;verticalAlign=middle;whiteSpace=wrap;rounded=0;dashed=1;" vertex="1" parent="a94rsnF3gP8LBblvFeuN-103">
          <mxGeometry y="10" width="270" height="30" as="geometry" />
        </mxCell>
        <mxCell id="a94rsnF3gP8LBblvFeuN-101" value="" style="rounded=0;whiteSpace=wrap;html=1;strokeWidth=3;" vertex="1" parent="a94rsnF3gP8LBblvFeuN-103">
          <mxGeometry x="410" width="160" height="230" as="geometry" />
        </mxCell>
        <mxCell id="a94rsnF3gP8LBblvFeuN-102" value="&lt;b&gt;Datos&lt;br&gt;&lt;/b&gt;" style="text;html=1;strokeColor=none;fillColor=none;align=center;verticalAlign=middle;whiteSpace=wrap;rounded=0;" vertex="1" parent="a94rsnF3gP8LBblvFeuN-103">
          <mxGeometry x="425" y="10" width="130" height="30" as="geometry" />
        </mxCell>
        <mxCell id="a94rsnF3gP8LBblvFeuN-169" value="" style="endArrow=classic;html=1;rounded=0;fontSize=32;fontColor=#000000;strokeWidth=5;" edge="1" parent="a94rsnF3gP8LBblvFeuN-103">
          <mxGeometry width="50" height="50" relative="1" as="geometry">
            <mxPoint x="134.34000000000015" y="60" as="sourcePoint" />
            <mxPoint x="134.17000000000007" y="260" as="targetPoint" />
          </mxGeometry>
        </mxCell>
        <mxCell id="a94rsnF3gP8LBblvFeuN-164" value="&lt;font size=&quot;1&quot; color=&quot;#000000&quot;&gt;&lt;b style=&quot;font-size: 20px;&quot;&gt;Declarar&amp;nbsp;&lt;/b&gt;&lt;/font&gt;" style="text;html=1;strokeColor=none;fillColor=none;align=center;verticalAlign=middle;whiteSpace=wrap;rounded=0;fontSize=32;fontColor=#FF8000;" vertex="1" parent="a94rsnF3gP8LBblvFeuN-103">
          <mxGeometry x="-152" y="140" width="430" height="30" as="geometry" />
        </mxCell>
        <mxCell id="a94rsnF3gP8LBblvFeuN-104" value="" style="group" vertex="1" connectable="0" parent="1">
          <mxGeometry x="-1230" y="20" width="750" height="260" as="geometry" />
        </mxCell>
        <mxCell id="a94rsnF3gP8LBblvFeuN-105" value="" style="group" vertex="1" connectable="0" parent="a94rsnF3gP8LBblvFeuN-104">
          <mxGeometry x="260" width="490" height="260" as="geometry" />
        </mxCell>
        <mxCell id="a94rsnF3gP8LBblvFeuN-108" value="" style="group" vertex="1" connectable="0" parent="a94rsnF3gP8LBblvFeuN-105">
          <mxGeometry x="-80" y="30" width="570" height="230" as="geometry" />
        </mxCell>
        <mxCell id="a94rsnF3gP8LBblvFeuN-110" value="" style="rounded=0;whiteSpace=wrap;html=1;strokeWidth=3;" vertex="1" parent="a94rsnF3gP8LBblvFeuN-108">
          <mxGeometry x="39" width="160" height="230" as="geometry" />
        </mxCell>
        <mxCell id="a94rsnF3gP8LBblvFeuN-111" value="&lt;b&gt;Tecnologia&lt;br&gt;&lt;/b&gt;" style="text;html=1;strokeColor=none;fillColor=none;align=center;verticalAlign=middle;whiteSpace=wrap;rounded=0;" vertex="1" parent="a94rsnF3gP8LBblvFeuN-108">
          <mxGeometry x="54" y="10" width="130" height="30" as="geometry" />
        </mxCell>
        <mxCell id="a94rsnF3gP8LBblvFeuN-106" value="" style="rounded=0;whiteSpace=wrap;html=1;strokeWidth=3;" vertex="1" parent="a94rsnF3gP8LBblvFeuN-104">
          <mxGeometry x="410" y="30" width="160" height="230" as="geometry" />
        </mxCell>
        <mxCell id="a94rsnF3gP8LBblvFeuN-107" value="&lt;b&gt;Material&lt;br&gt;&lt;/b&gt;" style="text;html=1;strokeColor=none;fillColor=none;align=center;verticalAlign=middle;whiteSpace=wrap;rounded=0;" vertex="1" parent="a94rsnF3gP8LBblvFeuN-104">
          <mxGeometry x="425" y="40" width="130" height="30" as="geometry" />
        </mxCell>
        <mxCell id="a94rsnF3gP8LBblvFeuN-109" value="&lt;b&gt;&lt;font style=&quot;font-size: 20px;&quot;&gt;Realisación&lt;/font&gt;&lt;/b&gt;" style="text;html=1;strokeColor=none;fillColor=none;align=center;verticalAlign=middle;whiteSpace=wrap;rounded=0;dashed=1;" vertex="1" parent="a94rsnF3gP8LBblvFeuN-104">
          <mxGeometry y="40" width="270" height="30" as="geometry" />
        </mxCell>
        <mxCell id="a94rsnF3gP8LBblvFeuN-171" value="" style="endArrow=classic;html=1;rounded=0;fontSize=32;fontColor=#000000;strokeWidth=5;" edge="1" parent="a94rsnF3gP8LBblvFeuN-104">
          <mxGeometry width="50" height="50" relative="1" as="geometry">
            <mxPoint x="134.17000000000007" y="90" as="sourcePoint" />
            <mxPoint x="134.17000000000007" y="230" as="targetPoint" />
          </mxGeometry>
        </mxCell>
        <mxCell id="a94rsnF3gP8LBblvFeuN-175" value="&lt;font size=&quot;1&quot; color=&quot;#000000&quot;&gt;&lt;b style=&quot;font-size: 20px;&quot;&gt;Build&lt;/b&gt;&lt;/font&gt;" style="text;html=1;strokeColor=none;fillColor=none;align=center;verticalAlign=middle;whiteSpace=wrap;rounded=0;fontSize=32;fontColor=#FF8000;" vertex="1" parent="a94rsnF3gP8LBblvFeuN-104">
          <mxGeometry x="-160" y="130" width="430" height="30" as="geometry" />
        </mxCell>
        <mxCell id="a94rsnF3gP8LBblvFeuN-112" value="&lt;b style=&quot;color: rgb(0, 0, 0); font-family: Helvetica; font-size: 32px; font-style: normal; font-variant-ligatures: normal; font-variant-caps: normal; letter-spacing: normal; orphans: 2; text-align: center; text-indent: 0px; text-transform: none; widows: 2; word-spacing: 0px; -webkit-text-stroke-width: 0px; background-color: rgb(248, 249, 250); text-decoration-thickness: initial; text-decoration-style: initial; text-decoration-color: initial;&quot;&gt;Nous framework&lt;/b&gt;" style="text;whiteSpace=wrap;html=1;fontSize=32;fontColor=#000000;" vertex="1" parent="1">
          <mxGeometry x="-970" y="-550" width="280" height="50" as="geometry" />
        </mxCell>
        <mxCell id="a94rsnF3gP8LBblvFeuN-139" value="" style="group" vertex="1" connectable="0" parent="1">
          <mxGeometry x="1530" y="-390" width="579" height="230" as="geometry" />
        </mxCell>
        <mxCell id="a94rsnF3gP8LBblvFeuN-140" value="" style="group" vertex="1" connectable="0" parent="a94rsnF3gP8LBblvFeuN-139">
          <mxGeometry x="219" width="160" height="230" as="geometry" />
        </mxCell>
        <mxCell id="a94rsnF3gP8LBblvFeuN-141" value="" style="rounded=0;whiteSpace=wrap;html=1;strokeWidth=3;" vertex="1" parent="a94rsnF3gP8LBblvFeuN-140">
          <mxGeometry width="160" height="230" as="geometry" />
        </mxCell>
        <mxCell id="a94rsnF3gP8LBblvFeuN-142" value="&lt;b&gt;Intención&lt;br&gt;&lt;/b&gt;" style="text;html=1;strokeColor=none;fillColor=none;align=center;verticalAlign=middle;whiteSpace=wrap;rounded=0;" vertex="1" parent="a94rsnF3gP8LBblvFeuN-140">
          <mxGeometry x="15" y="10" width="130" height="30" as="geometry" />
        </mxCell>
        <mxCell id="a94rsnF3gP8LBblvFeuN-144" value="&lt;b&gt;&lt;font style=&quot;font-size: 20px;&quot;&gt;Espiritu&lt;/font&gt;&lt;/b&gt;" style="text;html=1;strokeColor=none;fillColor=none;align=center;verticalAlign=middle;whiteSpace=wrap;rounded=0;dashed=1;" vertex="1" parent="a94rsnF3gP8LBblvFeuN-139">
          <mxGeometry y="10" width="270" height="30" as="geometry" />
        </mxCell>
        <mxCell id="a94rsnF3gP8LBblvFeuN-145" value="" style="rounded=0;whiteSpace=wrap;html=1;strokeWidth=3;" vertex="1" parent="a94rsnF3gP8LBblvFeuN-139">
          <mxGeometry x="409" width="160" height="230" as="geometry" />
        </mxCell>
        <mxCell id="a94rsnF3gP8LBblvFeuN-146" value="&lt;b&gt;Ontologia&lt;br&gt;&lt;/b&gt;" style="text;html=1;strokeColor=none;fillColor=none;align=center;verticalAlign=middle;whiteSpace=wrap;rounded=0;" vertex="1" parent="a94rsnF3gP8LBblvFeuN-139">
          <mxGeometry x="429" y="10" width="130" height="30" as="geometry" />
        </mxCell>
        <mxCell id="a94rsnF3gP8LBblvFeuN-148" value="" style="group" vertex="1" connectable="0" parent="1">
          <mxGeometry x="1530" y="-140" width="579" height="230" as="geometry" />
        </mxCell>
        <mxCell id="a94rsnF3gP8LBblvFeuN-149" value="" style="group" vertex="1" connectable="0" parent="a94rsnF3gP8LBblvFeuN-148">
          <mxGeometry x="219" width="160" height="230" as="geometry" />
        </mxCell>
        <mxCell id="a94rsnF3gP8LBblvFeuN-150" value="" style="rounded=0;whiteSpace=wrap;html=1;strokeWidth=3;" vertex="1" parent="a94rsnF3gP8LBblvFeuN-149">
          <mxGeometry width="160" height="230" as="geometry" />
        </mxCell>
        <mxCell id="a94rsnF3gP8LBblvFeuN-151" value="&lt;b&gt;Idea&lt;br&gt;&lt;/b&gt;" style="text;html=1;strokeColor=none;fillColor=none;align=center;verticalAlign=middle;whiteSpace=wrap;rounded=0;" vertex="1" parent="a94rsnF3gP8LBblvFeuN-149">
          <mxGeometry x="15" y="10" width="130" height="30" as="geometry" />
        </mxCell>
        <mxCell id="a94rsnF3gP8LBblvFeuN-152" value="" style="group" vertex="1" connectable="0" parent="a94rsnF3gP8LBblvFeuN-148">
          <mxGeometry width="570" height="230" as="geometry" />
        </mxCell>
        <mxCell id="a94rsnF3gP8LBblvFeuN-153" value="&lt;b&gt;&lt;font style=&quot;font-size: 20px;&quot;&gt;Información&lt;/font&gt;&lt;/b&gt;" style="text;html=1;strokeColor=none;fillColor=none;align=center;verticalAlign=middle;whiteSpace=wrap;rounded=0;dashed=1;" vertex="1" parent="a94rsnF3gP8LBblvFeuN-152">
          <mxGeometry y="10" width="270" height="30" as="geometry" />
        </mxCell>
        <mxCell id="a94rsnF3gP8LBblvFeuN-154" value="" style="rounded=0;whiteSpace=wrap;html=1;strokeWidth=3;" vertex="1" parent="a94rsnF3gP8LBblvFeuN-152">
          <mxGeometry x="410" width="160" height="230" as="geometry" />
        </mxCell>
        <mxCell id="a94rsnF3gP8LBblvFeuN-155" value="&lt;b&gt;Datos&lt;br&gt;&lt;/b&gt;" style="text;html=1;strokeColor=none;fillColor=none;align=center;verticalAlign=middle;whiteSpace=wrap;rounded=0;" vertex="1" parent="a94rsnF3gP8LBblvFeuN-152">
          <mxGeometry x="425" y="10" width="130" height="30" as="geometry" />
        </mxCell>
        <mxCell id="a94rsnF3gP8LBblvFeuN-156" value="" style="group" vertex="1" connectable="0" parent="1">
          <mxGeometry x="1530" y="120" width="579" height="230" as="geometry" />
        </mxCell>
        <mxCell id="a94rsnF3gP8LBblvFeuN-157" value="" style="group" vertex="1" connectable="0" parent="a94rsnF3gP8LBblvFeuN-156">
          <mxGeometry x="219" width="160" height="230" as="geometry" />
        </mxCell>
        <mxCell id="a94rsnF3gP8LBblvFeuN-158" value="" style="rounded=0;whiteSpace=wrap;html=1;strokeWidth=3;" vertex="1" parent="a94rsnF3gP8LBblvFeuN-157">
          <mxGeometry width="160" height="230" as="geometry" />
        </mxCell>
        <mxCell id="a94rsnF3gP8LBblvFeuN-159" value="&lt;b&gt;Material&lt;br&gt;&lt;/b&gt;" style="text;html=1;strokeColor=none;fillColor=none;align=center;verticalAlign=middle;whiteSpace=wrap;rounded=0;" vertex="1" parent="a94rsnF3gP8LBblvFeuN-157">
          <mxGeometry x="15" y="10" width="130" height="30" as="geometry" />
        </mxCell>
        <mxCell id="a94rsnF3gP8LBblvFeuN-160" value="" style="group" vertex="1" connectable="0" parent="a94rsnF3gP8LBblvFeuN-156">
          <mxGeometry width="570" height="230" as="geometry" />
        </mxCell>
        <mxCell id="a94rsnF3gP8LBblvFeuN-161" value="&lt;b&gt;&lt;font style=&quot;font-size: 20px;&quot;&gt;Realisación&lt;/font&gt;&lt;/b&gt;" style="text;html=1;strokeColor=none;fillColor=none;align=center;verticalAlign=middle;whiteSpace=wrap;rounded=0;dashed=1;" vertex="1" parent="a94rsnF3gP8LBblvFeuN-160">
          <mxGeometry y="10" width="270" height="30" as="geometry" />
        </mxCell>
        <mxCell id="a94rsnF3gP8LBblvFeuN-162" value="" style="rounded=0;whiteSpace=wrap;html=1;strokeWidth=3;" vertex="1" parent="a94rsnF3gP8LBblvFeuN-160">
          <mxGeometry x="410" width="160" height="230" as="geometry" />
        </mxCell>
        <mxCell id="a94rsnF3gP8LBblvFeuN-163" value="&lt;b&gt;Tecnologia&lt;br&gt;&lt;/b&gt;" style="text;html=1;strokeColor=none;fillColor=none;align=center;verticalAlign=middle;whiteSpace=wrap;rounded=0;" vertex="1" parent="a94rsnF3gP8LBblvFeuN-160">
          <mxGeometry x="425" y="10" width="130" height="30" as="geometry" />
        </mxCell>
        <mxCell id="a94rsnF3gP8LBblvFeuN-172" value="&lt;b&gt;&lt;font style=&quot;font-size: 20px;&quot;&gt;Entités&lt;/font&gt;&lt;/b&gt;" style="text;html=1;strokeColor=none;fillColor=none;align=center;verticalAlign=middle;whiteSpace=wrap;rounded=0;dashed=1;" vertex="1" parent="1">
          <mxGeometry x="-1230" y="310" width="270" height="30" as="geometry" />
        </mxCell>
        <mxCell id="a94rsnF3gP8LBblvFeuN-173" value="" style="rounded=0;whiteSpace=wrap;html=1;strokeWidth=3;" vertex="1" parent="1">
          <mxGeometry x="-1010" y="310" width="160" height="230" as="geometry" />
        </mxCell>
        <mxCell id="a94rsnF3gP8LBblvFeuN-174" value="&lt;b&gt;Individus&lt;br&gt;&lt;/b&gt;" style="text;html=1;strokeColor=none;fillColor=none;align=center;verticalAlign=middle;whiteSpace=wrap;rounded=0;" vertex="1" parent="1">
          <mxGeometry x="-995" y="320" width="130" height="30" as="geometry" />
        </mxCell>
        <mxCell id="a94rsnF3gP8LBblvFeuN-176" value="" style="rounded=0;whiteSpace=wrap;html=1;strokeWidth=3;" vertex="1" parent="1">
          <mxGeometry x="-820" y="310" width="160" height="230" as="geometry" />
        </mxCell>
        <mxCell id="a94rsnF3gP8LBblvFeuN-177" value="&lt;b&gt;Objets&lt;br&gt;&lt;/b&gt;" style="text;html=1;strokeColor=none;fillColor=none;align=center;verticalAlign=middle;whiteSpace=wrap;rounded=0;" vertex="1" parent="1">
          <mxGeometry x="-810" y="330" width="130" height="30" as="geometry" />
        </mxCell>
      </root>
    </mxGraphModel>
  </diagram>
</mxfile>
